<svg xmlns="http://www.w3.org/2000/svg" version="1.1" xmlns:xlink="http://www.w3.org/1999/xlink" xmlns:svgjs="http://svgjs.dev/svgjs" width="1000" height="623" viewBox="0 0 1000 623"><g transform="matrix(1,0,0,1,-0.6060606060606233,0.2522267206477409)"><svg viewBox="0 0 396 247" data-background-color="#fafafa" preserveAspectRatio="xMidYMid meet" height="623" width="1000" xmlns="http://www.w3.org/2000/svg" xmlns:xlink="http://www.w3.org/1999/xlink"><g id="tight-bounds" transform="matrix(1,0,0,1,0.2400000000000091,-0.09999999999999432)"><svg viewBox="0 0 395.52 247.2" height="247.2" width="395.52"><g><svg></svg></g><g><svg viewBox="0 0 395.52 247.2" height="247.2" width="395.52"><g transform="matrix(1,0,0,1,75.54432,72.45941709796092)"><svg viewBox="0 0 244.43135999999998 102.28116580407814" height="102.28116580407814" width="244.43135999999998"><g><svg viewBox="0 0 244.43135999999998 102.28116580407814" height="102.28116580407814" width="244.43135999999998"><g><svg viewBox="0 0 244.43135999999998 102.28116580407814" height="102.28116580407814" width="244.43135999999998"><g><svg viewBox="0 0 244.43135999999998 102.28116580407814" height="102.28116580407814" width="244.43135999999998"><g><svg viewBox="0 0 244.43135999999998 102.28116580407814" height="102.28116580407814" width="244.43135999999998"><g><svg viewBox="0 0 244.43135999999998 58.959937012302284" height="58.959937012302284" width="244.43135999999998"><g transform="matrix(1,0,0,1,0,0)"><svg width="244.43135999999998" viewBox="3.799999952316284 -27.149999618530273 113.78999328613281 27.44999885559082" height="58.959937012302284" data-palette-color="#130912"><path d="M7.75 0L3.8 0 3.8-26.7 6.9-26.7 7.75-23.75Q9.65-25.1 12.2-26.13 14.75-27.15 17.5-27.15L17.5-27.15Q20.45-27.15 22.25-25.9 24.05-24.65 24.9-22.6 25.75-20.55 25.75-18.15L25.75-18.15 25.75 0 21.8 0 21.8-17.7Q21.8-19.4 21.13-20.73 20.45-22.05 19.23-22.8 18-23.55 16.2-23.55L16.2-23.55Q14.55-23.55 13.13-23.23 11.7-22.9 10.43-22.33 9.15-21.75 7.75-20.95L7.75-20.95 7.75 0ZM43.4 0.3L43.4 0.3Q39.2 0.3 36.77-0.95 34.35-2.2 33.3-5.2 32.25-8.2 32.25-13.4L32.25-13.4Q32.25-18.7 33.32-21.68 34.4-24.65 36.85-25.85 39.3-27.05 43.45-27.05L43.45-27.05Q47-27.05 49.22-26.25 51.45-25.45 52.52-23.53 53.6-21.6 53.6-18.2L53.6-18.2Q53.6-15.85 52.67-14.43 51.75-13 50.02-12.38 48.3-11.75 45.95-11.75L45.95-11.75 36.2-11.75Q36.25-8.5 36.9-6.53 37.55-4.55 39.27-3.68 41-2.8 44.35-2.8L44.35-2.8 52.95-2.8 52.95-0.4Q50.65-0.1 48.45 0.1 46.25 0.3 43.4 0.3ZM36.15-14.35L36.15-14.35 45.65-14.35Q47.9-14.35 48.97-15.18 50.05-16 50.05-18.15L50.05-18.15Q50.05-20.45 49.37-21.73 48.7-23 47.27-23.53 45.85-24.05 43.45-24.05L43.45-24.05Q40.65-24.05 39.05-23.23 37.45-22.4 36.8-20.3 36.15-18.2 36.15-14.35ZM69.3 0L65 0 56.9-26.7 60.95-26.7 67.5-3.7 74.25-26.7 77.7-26.7 84.45-3.7 90.8-26.7 94.85-26.7 86.8 0 82.45 0 75.9-21.4 69.3 0ZM108.04 0.3L108.04 0.3Q107.04 0.3 105.59 0.25 104.14 0.2 102.57 0.1 100.99 0 99.72-0.13 98.44-0.25 97.74-0.4L97.74-0.4 97.74-2.8 108.69-2.8Q110.34-2.8 111.54-3.05 112.74-3.3 113.42-4.15 114.09-5 114.09-6.7L114.09-6.7 114.09-7.9Q114.09-9.65 112.94-10.63 111.79-11.6 109.24-11.6L109.24-11.6 105.49-11.6Q103.14-11.6 101.32-12.2 99.49-12.8 98.49-14.25 97.49-15.7 97.49-18.25L97.49-18.25 97.49-19.65Q97.49-22.15 98.47-23.75 99.44-25.35 101.52-26.15 103.59-26.95 106.89-26.95L106.89-26.95Q108.29-26.95 110.12-26.85 111.94-26.75 113.69-26.58 115.44-26.4 116.54-26.2L116.54-26.2 116.54-23.8 106.24-23.8Q103.69-23.8 102.32-22.95 100.94-22.1 100.94-19.65L100.94-19.65 100.94-18.55Q100.94-17 101.59-16.23 102.24-15.45 103.42-15.2 104.59-14.95 106.14-14.95L106.14-14.95 109.94-14.95Q113.59-14.95 115.59-13.25 117.59-11.55 117.59-8.35L117.59-8.35 117.59-6.5Q117.59-3.8 116.37-2.33 115.14-0.85 113.02-0.28 110.89 0.3 108.04 0.3Z" opacity="1" transform="matrix(1,0,0,1,0,0)" fill="#130912" class="undefined-text-0" data-fill-palette-color="primary" id="text-0"></path></svg></g></svg></g><g transform="matrix(1,0,0,1,0,72.87896310241855)"><svg viewBox="0 0 244.43135999999998 29.40220270165959" height="29.40220270165959" width="244.43135999999998"><g transform="matrix(1,0,0,1,0,0)"><svg width="244.43135999999998" viewBox="1.25 -39 388.6499938964844 46.75" height="29.40220270165959" data-palette-color="#130912"><path d="M27.45-2.1Q25.95-1 23.28-0.28 20.6 0.45 16.38 0.45 12.15 0.45 8.35-0.25 4.55-0.95 2.9-1.8 1.25-2.65 1.25-3.45L1.25-3.45Q1.25-6.25 2.05-9.28 2.85-12.3 3.95-12.3L3.95-12.3Q4.15-12.3 8.1-10.95 12.05-9.6 14.05-9.6 16.05-9.6 16.65-10.03 17.25-10.45 17.25-11.25 17.25-12.05 16.15-12.68 15.05-13.3 13.4-13.78 11.75-14.25 9.83-15.15 7.9-16.05 6.25-17.15 4.6-18.25 3.5-20.28 2.4-22.3 2.4-24.9L2.4-24.9Q2.4-36 15.65-36L15.65-36Q20.6-36 24.2-35.38 27.8-34.75 29.28-33.98 30.75-33.2 30.75-32.45L30.75-32.45Q30.75-29.85 29.53-26.85 28.3-23.85 27.15-23.85L27.15-23.85Q26.95-23.85 25.85-24.3L25.85-24.3Q22.55-25.75 20.38-25.75 18.2-25.75 17.43-25.35 16.65-24.95 16.65-24.13 16.65-23.3 17.75-22.78 18.85-22.25 20.48-21.83 22.1-21.4 24.03-20.53 25.95-19.65 27.6-18.48 29.25-17.3 30.35-15.15 31.45-13 31.45-10.15L31.45-10.15Q31.45-7.15 29.9-4.7L29.9-4.7Q28.95-3.2 27.45-2.1ZM54.1-0.45Q53.2 0.4 50 0.4 46.8 0.4 44.7-0.03 42.6-0.45 40.7-1.7L40.7-1.7Q37.05-4.15 37.05-11.9L37.05-11.9 37.05-19.7 34.55-19.7Q34-19.7 33.6-20.85 33.2-22 33.2-24 33.2-26 33.83-27.53 34.45-29.05 35.45-29.05L35.45-29.05 37.05-29.05 37.05-35.1Q37.05-36.65 40.08-37.6 43.1-38.55 46-38.55L46-38.55Q50.55-38.55 50.55-36.3L50.55-36.3 50.55-29.05 54.25-29.05Q55.55-29.05 55.55-25.3L55.55-25.3Q55.55-22.85 54.98-21.28 54.4-19.7 53.5-19.7L53.5-19.7 50.55-19.7 50.55-10.55Q50.55-9.2 51.7-8.63 52.85-8.05 53.73-8.05 54.6-8.05 54.8-7.2 55-6.35 55-4.65L55-4.65Q55-1.3 54.1-0.45ZM68.05 0.45L68.05 0.45Q63.5 0.45 60.9-1.7L60.9-1.7Q59.85-2.6 59.08-4.35 58.3-6.1 58.3-8.45 58.3-10.8 59.43-12.55 60.55-14.3 62.15-15.25 63.75-16.2 65.9-16.8L65.9-16.8Q69.15-17.65 73.05-17.65L73.05-17.65 74.7-17.65Q74.7-19.7 73.3-20.55L73.3-20.55Q72.7-20.9 71.48-20.9 70.25-20.9 68.53-20.25 66.8-19.6 65.65-18.93 64.5-18.25 64.1-18.25L64.1-18.25Q63.2-18.25 61.65-20.63 60.1-23 60.1-24.95L60.1-24.95Q60.1-25.6 61.95-26.65 63.8-27.7 67.18-28.58 70.55-29.45 73.75-29.45 76.95-29.45 79.28-28.93 81.6-28.4 83.08-27.65 84.55-26.9 85.58-25.65 86.6-24.4 87.13-23.4 87.65-22.4 87.9-20.8L87.9-20.8Q88.25-18.95 88.25-16.25L88.25-16.25 88.25-1.2Q88.25-0.65 85.58-0.33 82.9 0 80.28 0 77.65 0 76.88-0.15 76.1-0.3 75.95-0.5 75.8-0.7 75.7-1.2L75.7-1.2 75.3-4.05 74.9-4.05Q73.65 0.45 68.05 0.45ZM74.75-7.85L74.75-7.85 74.75-13.7Q73.45-13.7 72.65-12.6 71.85-11.5 71.85-10.1L71.85-10.1Q71.85-6.8 73.35-6.8L73.35-6.8Q74-6.8 74.38-7.13 74.75-7.45 74.75-7.85ZM108.6-3.25L108.6-3.25 108.6-6.2 108.2-6.2Q107.95-5.95 107.45-5.55 106.95-5.15 105.1-4.5 103.25-3.85 100.98-3.85 98.7-3.85 96.98-4.58 95.25-5.3 94.25-6.53 93.25-7.75 92.7-9.8L92.7-9.8Q91.75-13.05 91.75-19L91.75-19 91.75-25.9Q91.75-26.95 94.7-27.98 97.65-29 100.9-29L100.9-29Q105.25-29 105.25-26.75L105.25-26.75 105.25-20.45Q105.25-10.45 106.85-10.45L106.85-10.45Q107.8-10.45 107.8-11.8L107.8-11.8 107.8-25.9Q107.8-26.95 110.95-27.98 114.1-29 117.7-29 121.3-29 121.3-27.05L121.3-27.05 121.3-3.4Q121.3 7.75 106.2 7.75L106.2 7.75Q98.25 7.75 95.4 6.2L95.4 6.2Q94.15 5.5 94.15 4.75L94.15 4.75Q94.15 3.55 95.15 0.73 96.15-2.1 97-2.1L97-2.1Q97.2-2.1 98.4-1.8L98.4-1.8Q102.1-0.8 104.58-0.8 107.05-0.8 107.83-1.35 108.6-1.9 108.6-3.25ZM150.25-1.2Q150.25-0.65 147.2-0.33 144.15 0 141.08 0 138 0 137.15-0.28 136.3-0.55 136.3-1.2L136.3-1.2 136.3-32.3Q136.3-33.4 139.2-34.48 142.1-35.55 145.7-35.55L145.7-35.55Q148.9-35.55 149.9-34.2L149.9-34.2Q150.25-33.7 150.25-33.2L150.25-33.2 150.25-1.2ZM184.15-16.6L184.15-16.6 184.15-1.2Q184.15-0.65 181.3-0.33 178.45 0 175.43 0 172.4 0 171.53-0.28 170.65-0.55 170.65-1.2L170.65-1.2 170.65-17.1Q170.65-19.35 170.48-20.05 170.3-20.75 170.15-21.3L170.15-21.3Q169.8-22.25 168.9-22.25L168.9-22.25Q167.5-22.25 167.5-20.9L167.5-20.9 167.5-1.2Q167.5-0.65 164.68-0.33 161.85 0 158.83 0 155.8 0 154.9-0.28 154-0.55 154-1.2L154-1.2 154-25.85Q154-26.9 156.88-27.95 159.75-29 162.95-29 166.15-29 166.55-27.15L166.55-27.15 167-24.95 167.35-24.95Q168.8-27.85 172.35-29L172.35-29Q173.8-29.45 175.55-29.45L175.55-29.45Q180.6-29.45 182.38-26.43 184.15-23.4 184.15-16.6ZM209.7-16.5L203.8-16.5 203.8-1.2Q203.8-0.65 201.05-0.33 198.3 0 194.3 0 190.3 0 190.3-1.2L190.3-1.2 190.3-16.5 187.75-16.5Q186.4-16.5 186.4-21.05L186.4-21.05Q186.4-22.85 187.03-24.43 187.65-26 188.65-26L188.65-26 190.3-26Q190.3-29.35 191.28-31.85 192.25-34.35 193.63-35.68 195-37 196.95-37.8L196.95-37.8Q199.85-39 203.55-39L203.55-39Q212.85-39 212.85-35.95L212.85-35.95Q212.85-32.65 212.2-30.55 211.55-28.45 210.45-28.45L210.45-28.45Q210-28.45 208.78-28.78 207.55-29.1 206.45-29.1L206.45-29.1Q203.55-29.1 203.55-27.1L203.55-27.1Q203.55-26.6 203.8-26L203.8-26 210.45-26Q211.8-26 211.8-21.6L211.8-21.6Q211.8-19.65 211.23-18.07 210.65-16.5 209.7-16.5L209.7-16.5ZM231 0.45L231 0.45Q227.25 0.45 224.55-0.2 221.85-0.85 219.65-2.5L219.65-2.5Q215.1-5.8 215.1-14.8L215.1-14.8Q215.1-22.8 219.75-26.25L219.75-26.25Q224.1-29.45 231-29.45L231-29.45Q233.95-29.45 236.05-29.18 238.15-28.9 240.33-28 242.5-27.1 243.83-25.55 245.15-24 246-21.28 246.85-18.55 246.85-14.8L246.85-14.8Q246.85-7.2 242.55-3.38 238.25 0.45 231 0.45ZM229.25-9.3Q229.6-7.5 229.98-7.15 230.35-6.8 230.98-6.8 231.6-6.8 231.98-7.15 232.35-7.5 232.68-9.3 233-11.1 233-13.83 233-16.55 232.88-18.03 232.75-19.5 232.58-20.3 232.4-21.1 232.1-21.55L232.1-21.55Q231.65-22.2 231.03-22.2 230.4-22.2 230-21.83 229.6-21.45 229.25-19.63 228.9-17.8 228.9-14.45 228.9-11.1 229.25-9.3ZM263.35-15.8L263.35-15.8 263.35-1.2Q263.35-0.65 260.53-0.33 257.7 0 254.68 0 251.65 0 250.75-0.28 249.85-0.55 249.85-1.2L249.85-1.2 249.85-25.85Q249.85-26.8 252.63-27.9 255.4-29 258.68-29 261.95-29 262.35-27.2L262.35-27.2 262.85-24.9 263.2-24.9Q263.9-26.8 266.55-28.13 269.2-29.45 271.85-29.45 274.5-29.45 275.58-28.6 276.65-27.75 276.65-26.43 276.65-25.1 276.45-23.05 276.25-21 275.48-18.6 274.7-16.2 273.45-16.2L273.45-16.2Q272.95-16.2 270.3-16.95 267.65-17.7 265.93-17.7 264.2-17.7 263.78-17.2 263.35-16.7 263.35-15.8ZM324.7-16.5L324.7-16.5 324.7-1.2Q324.7-0.65 321.88-0.33 319.05 0 316.03 0 313 0 312.1-0.28 311.2-0.55 311.2-1.2L311.2-1.2 311.2-15.05Q311.2-22.2 309.75-22.2L309.75-22.2Q309.4-22.2 309.05-21.9 308.7-21.6 308.7-20.85L308.7-20.85 308.7-1.2Q308.7-0.65 305.88-0.33 303.05 0 300 0 296.95 0 296.08-0.28 295.2-0.55 295.2-1.2L295.2-1.2 295.2-15.05Q295.2-20.6 294.5-21.7L294.5-21.7Q294.15-22.2 293.6-22.2L293.6-22.2Q292.65-22.2 292.65-20.85L292.65-20.85 292.65-1.2Q292.65-0.65 289.8-0.33 286.95 0 283.93 0 280.9 0 280.03-0.28 279.15-0.55 279.15-1.2L279.15-1.2 279.15-25.85Q279.15-26.9 282.03-27.95 284.9-29 288.1-29 291.3-29 291.7-27.15L291.7-27.15 292.15-24.95 292.5-24.95Q293.95-27.8 297.3-29L297.3-29Q298.7-29.45 300.9-29.45L300.9-29.45Q305.3-29.45 307.3-24.95L307.3-24.95Q307.95-26.45 310.55-27.95 313.15-29.45 316.3-29.45L316.3-29.45Q321.25-29.45 322.98-26.38 324.7-23.3 324.7-16.5ZM343-11.3L341.35-11.3Q341.35-8.05 344.45-8.05L344.45-8.05Q346.25-8.05 349.15-9.28 352.05-10.5 352.2-10.5L352.2-10.5Q353.15-10.5 354.7-7.65 356.25-4.8 356.25-3.45L356.25-3.45Q356.25-1.5 352.25-0.5 348.25 0.5 344.43 0.5 340.6 0.5 338.03-0.1 335.45-0.7 333.83-1.63 332.2-2.55 330.98-3.9 329.75-5.25 329.15-6.48 328.55-7.7 328.2-9.2L328.2-9.2Q327.7-11.4 327.7-13.75L327.7-13.75Q327.7-22.85 332.45-26.3L332.45-26.3Q334.8-28.05 337.7-28.75 340.6-29.45 344.55-29.45L344.55-29.45Q357.2-29.45 357.2-20.65L357.2-20.65Q357.2-11.3 343-11.3L343-11.3ZM341.25-18.6L341.25-18.6 341.25-15.3Q342.7-15.3 343.63-16.45 344.55-17.6 344.55-19.25L344.55-19.25Q344.55-22.25 343-22.25L343-22.25Q341.25-22.25 341.25-18.6ZM369.6 0.45L369.6 0.45Q367.75 0.45 366.15-0.1 364.55-0.65 363.53-1.45 362.5-2.25 361.75-3.6 361-4.95 360.6-6.18 360.2-7.4 360-9.2L360-9.2Q359.7-11.85 359.7-15.25L359.7-15.25Q359.7-22.2 362.25-25.83 364.8-29.45 369.25-29.45L369.25-29.45Q373.8-29.45 375.85-27.3L375.85-27.3Q376.3-26.8 376.55-26.1L376.55-26.1 376.95-26.1 376.35-29.55 376.35-35.8Q376.35-36.9 379.15-37.95 381.95-39 385.2-39L385.2-39Q388.6-39 389.55-37.7L389.55-37.7Q389.9-37.2 389.9-36.7L389.9-36.7 389.9-1.2Q389.9-0.65 387.13-0.33 384.35 0 381.78 0 379.2 0 378.48-0.18 377.75-0.35 377.58-0.55 377.4-0.75 377.35-1.2L377.35-1.2 376.95-4.05 376.55-4.05Q376.1-2.3 374.75-1.1L374.75-1.1Q373.05 0.45 369.6 0.45ZM375.2-6.85L375.2-6.85Q376-6.85 376.4-7.85L376.4-7.85 376.4-21.2Q376.4-21.7 375.88-21.98 375.35-22.25 374.95-22.25L374.95-22.25Q373.25-22.25 373.25-14.45L373.25-14.45Q373.25-10.3 373.73-8.58 374.2-6.85 375.2-6.85Z" opacity="1" transform="matrix(1,0,0,1,0,0)" fill="#130912" class="undefined-text-1" data-fill-palette-color="secondary" id="text-1"></path></svg></g></svg></g></svg></g></svg></g></svg></g></svg></g></svg></g><g><path d="M245.816 0c68.262 0 123.6 55.338 123.6 123.6 0 68.262-55.338 123.6-123.6 123.6-47.261 0-88.326-26.525-109.121-65.5h3.023c20.553 37.453 60.36 62.841 106.098 62.841 66.794 0 120.941-54.147 120.941-120.941 0-66.794-54.147-120.941-120.941-120.941-45.737 0-85.544 25.389-106.098 62.841l-3.023 0c20.795-38.975 61.86-65.5 109.121-65.5z" fill="#130912" stroke="transparent" data-fill-palette-color="tertiary"></path></g></svg></g><defs></defs></svg><rect width="395.52" height="247.2" fill="none" stroke="none" visibility="hidden"></rect></g></svg></g></svg>